<svg xmlns="http://www.w3.org/2000/svg"  viewBox="0 0 48 48" width="48px" height="48px"><linearGradient id="v2kQoBW9ow5_ighnPSEUHa" x1="-1.309" x2="2.691" y1="37.197" y2="37.197" gradientTransform="rotate(-20.195 -59.54 22.44)" gradientUnits="userSpaceOnUse"><stop offset="0" stop-color="#546e7a"/><stop offset=".25" stop-color="#90a4ae"/><stop offset=".75" stop-color="#90a4ae"/><stop offset=".863" stop-color="#778e98"/><stop offset="1" stop-color="#546e7a"/></linearGradient><path fill="url(#v2kQoBW9ow5_ighnPSEUHa)" d="M4.303,15.747l-3.754,1.381L0.031,15.72c-0.095-0.259,0.038-0.547,0.297-0.642l2.816-1.035 c0.259-0.095,0.547,0.038,0.642,0.297L4.303,15.747z"/><linearGradient id="v2kQoBW9ow5_ighnPSEUHb" x1="-1.309" x2="2.691" y1="45.197" y2="45.197" gradientTransform="rotate(-20.195 -59.54 22.44)" gradientUnits="userSpaceOnUse"><stop offset="0" stop-color="#1a1a1a"/><stop offset=".25" stop-color="#333"/><stop offset=".75" stop-color="#333"/><stop offset=".998" stop-color="#1a1a1a"/><stop offset="1" stop-color="#1a1a1a"/></linearGradient><polygon fill="url(#v2kQoBW9ow5_ighnPSEUHb)" points="9.48,29.825 5.726,31.206 0.203,16.189 3.958,14.808"/><polygon fill="#616161" points="3.116,18.314 1.363,17.893 2.426,16.437 4.179,16.858"/><polygon fill="#616161" points="4.151,21.13 2.398,20.709 3.461,19.253 5.214,19.674"/><polygon fill="#616161" points="5.187,23.946 3.434,23.525 4.497,22.068 6.25,22.489"/><polygon fill="#616161" points="6.222,26.761 4.469,26.34 5.532,24.884 7.285,25.305"/><polygon fill="#616161" points="7.258,29.577 5.505,29.156 6.567,27.7 8.32,28.121"/><linearGradient id="v2kQoBW9ow5_ighnPSEUHc" x1="-1.309" x2="2.691" y1="54.197" y2="54.197" gradientTransform="rotate(-20.195 -59.54 22.44)" gradientUnits="userSpaceOnUse"><stop offset="0" stop-color="#546e7a"/><stop offset=".25" stop-color="#90a4ae"/><stop offset=".75" stop-color="#90a4ae"/><stop offset=".863" stop-color="#778e98"/><stop offset="1" stop-color="#546e7a"/></linearGradient><polygon fill="url(#v2kQoBW9ow5_ighnPSEUHc)" points="10.17,31.702 6.416,33.083 5.726,31.206 9.48,29.825"/><linearGradient id="v2kQoBW9ow5_ighnPSEUHd" x1="-2.309" x2="3.691" y1="55.697" y2="55.697" gradientTransform="rotate(-20.195 -59.54 22.44)" gradientUnits="userSpaceOnUse"><stop offset="0" stop-color="#546e7a"/><stop offset=".25" stop-color="#90a4ae"/><stop offset=".75" stop-color="#90a4ae"/><stop offset=".863" stop-color="#778e98"/><stop offset="1" stop-color="#546e7a"/></linearGradient><path fill="url(#v2kQoBW9ow5_ighnPSEUHd)" d="M10.985,32.468l-4.693,1.726c-0.259,0.095-0.547-0.038-0.642-0.297l0,0 c-0.095-0.259,0.038-0.547,0.297-0.642l4.693-1.726c0.259-0.095,0.547,0.038,0.642,0.297l0,0 C11.377,32.085,11.244,32.373,10.985,32.468z"/><linearGradient id="v2kQoBW9ow5_ighnPSEUHe" x1=".691" x2=".691" y1="54.197" y2="55.197" gradientTransform="rotate(-20.195 -59.54 22.44)" gradientUnits="userSpaceOnUse"><stop offset="0" stop-color="#78909c" stop-opacity="0"/><stop offset="1" stop-color="#37474f"/></linearGradient><polygon fill="url(#v2kQoBW9ow5_ighnPSEUHe)" points="10.17,31.702 6.416,33.083 6.071,32.144 9.825,30.764"/><linearGradient id="v2kQoBW9ow5_ighnPSEUHf" x1="-1.809" x2="3.191" y1="60.197" y2="60.197" gradientTransform="rotate(-20.195 -59.54 22.44)" gradientUnits="userSpaceOnUse"><stop offset="0"/><stop offset=".25" stop-color="#262626"/><stop offset=".75" stop-color="#262626"/><stop offset=".92" stop-color="#0d0d0d"/><stop offset="1"/></linearGradient><polygon fill="url(#v2kQoBW9ow5_ighnPSEUHf)" points="13.746,39.977 9.053,41.702 6.292,34.194 10.985,32.468"/><g><radialGradient id="v2kQoBW9ow5_ighnPSEUHg" cx="24" cy="39.5" r="19.982" gradientUnits="userSpaceOnUse"><stop offset="0" stop-color="#1a1a1a"/><stop offset=".324" stop-color="#1d1d1d"/><stop offset=".575" stop-color="#272727"/><stop offset=".8" stop-color="#373737"/><stop offset="1" stop-color="#4d4d4d"/></radialGradient><path fill="url(#v2kQoBW9ow5_ighnPSEUHg)" d="M38.5,35.5C36.545,34.414,24,33,24,33s-12.545,1.414-14.5,2.5C5,38,5,46,5,46h19h19 C43,46,43,38,38.5,35.5z"/><path fill="#333" d="M8.561,36.166C8.81,39.686,9.782,44.944,9.982,46h2.014l-0.165-1 c-0.342-1.874-1.156-6.562-1.307-9.452l-0.027-0.414C10.06,35.258,9.714,35.381,9.5,35.5C9.159,35.689,8.852,35.919,8.561,36.166z"/><path fill="#2f2f2f" d="M9.503,35.499c-0.29,0.211-0.55,0.46-0.794,0.727c0.261,3.565,1.247,8.87,1.419,9.775h1.869 l-0.165-1c-0.342-1.874-1.156-6.562-1.307-9.452l-0.027-0.414C10.062,35.258,9.717,35.38,9.503,35.499z"/><path fill="#2c2c2c" d="M9.507,35.497c-0.239,0.233-0.451,0.502-0.65,0.788c0.272,3.61,1.273,8.961,1.416,9.715h1.723 l-0.165-1c-0.342-1.874-1.156-6.562-1.307-9.452l-0.027-0.414C10.064,35.257,9.721,35.379,9.507,35.497z"/><path fill="#282828" d="M9.51,35.496c-0.188,0.255-0.353,0.543-0.505,0.849c0.283,3.654,1.299,9.052,1.414,9.656h1.578 l-0.165-1c-0.342-1.874-1.156-6.562-1.307-9.452l-0.027-0.414C10.065,35.257,9.724,35.378,9.51,35.496z"/><path fill="#252525" d="M9.513,35.494c-0.137,0.276-0.254,0.584-0.36,0.91c0.294,3.699,1.325,9.143,1.411,9.596h1.433 l-0.165-1c-0.342-1.874-1.156-6.562-1.307-9.452l-0.027-0.414C10.067,35.256,9.728,35.377,9.513,35.494z"/><path fill="#212121" d="M9.516,35.493c-0.086,0.298-0.156,0.626-0.215,0.971c0.305,3.744,1.351,9.235,1.408,9.536h1.287 l-0.165-1c-0.342-1.874-1.156-6.562-1.307-9.452l-0.027-0.414C10.069,35.256,9.731,35.376,9.516,35.493z"/><path fill="#1e1e1e" d="M9.52,35.491c-0.035,0.32-0.057,0.667-0.071,1.032c0.316,3.788,1.377,9.326,1.406,9.477h1.142 l-0.165-1c-0.342-1.874-1.156-6.562-1.307-9.452l-0.027-0.414C10.07,35.255,9.734,35.375,9.52,35.491z"/><path fill="#1a1a1a" d="M10.524,35.548l-0.027-0.414c-0.425,0.121-0.759,0.24-0.974,0.356C9.698,39.24,11,46,11,46h0.996 l-0.165-1C11.489,43.126,10.675,38.438,10.524,35.548z"/><path fill="#333" d="M39.439,36.166c-0.249,3.521-1.222,8.778-1.422,9.834h-2.014l0.165-1 c0.342-1.874,1.156-6.562,1.307-9.452l0.027-0.414c0.437,0.124,0.783,0.247,0.997,0.366 C38.841,35.689,39.148,35.919,39.439,36.166z"/><path fill="#2f2f2f" d="M37.503,35.134c0.435,0.124,0.78,0.246,0.994,0.364c0.29,0.211,0.55,0.46,0.794,0.727 c-0.261,3.565-1.247,8.87-1.419,9.775h-1.869l0.165-1c0.342-1.874,1.156-6.562,1.307-9.452L37.503,35.134z"/><path fill="#2c2c2c" d="M37.503,35.134c0.433,0.123,0.776,0.245,0.991,0.363c0.239,0.233,0.451,0.502,0.65,0.788 c-0.272,3.61-1.273,8.961-1.416,9.715h-1.723l0.165-1c0.342-1.874,1.156-6.562,1.307-9.452L37.503,35.134z"/><path fill="#282828" d="M37.503,35.134c0.432,0.123,0.773,0.244,0.987,0.362c0.188,0.255,0.353,0.543,0.505,0.849 c-0.283,3.654-1.299,9.052-1.414,9.656h-1.578l0.165-1c0.342-1.874,1.156-6.562,1.307-9.452L37.503,35.134z"/><path fill="#252525" d="M37.503,35.134c0.43,0.122,0.77,0.243,0.984,0.36c0.137,0.276,0.254,0.584,0.36,0.91 c-0.294,3.699-1.325,9.143-1.411,9.596h-1.433l0.165-1c0.342-1.874,1.156-6.562,1.307-9.452L37.503,35.134z"/><path fill="#212121" d="M37.503,35.134c0.428,0.122,0.766,0.242,0.981,0.359c0.086,0.298,0.156,0.626,0.215,0.971 c-0.305,3.744-1.351,9.235-1.408,9.536h-1.287l0.165-1c0.342-1.874,1.156-6.562,1.307-9.452L37.503,35.134z"/><path fill="#1e1e1e" d="M37.503,35.134c0.427,0.121,0.763,0.241,0.978,0.357c0.035,0.32,0.057,0.667,0.071,1.032 c-0.316,3.788-1.377,9.326-1.406,9.477h-1.142l0.165-1c0.342-1.874,1.156-6.562,1.307-9.452L37.503,35.134z"/><path fill="#1a1a1a" d="M37.476,35.548l0.027-0.414c0.425,0.121,0.759,0.24,0.974,0.356C38.302,39.24,37,46,37,46h-0.996 l0.165-1C36.511,43.126,37.325,38.438,37.476,35.548z"/><radialGradient id="v2kQoBW9ow5_ighnPSEUHh" cx="24" cy="39" r="17.172" gradientUnits="userSpaceOnUse"><stop offset="0" stop-color="#1f1f1f"/><stop offset=".336" stop-color="#2b2b2b"/><stop offset=".933" stop-color="#494949"/><stop offset="1" stop-color="#4d4d4d"/></radialGradient><path fill="url(#v2kQoBW9ow5_ighnPSEUHh)" d="M38.084,34.644L24,32L9.916,34.644c-0.24,0.045-0.417,0.252-0.41,0.496 C9.612,38.803,11,46,11,46h26c0,0,1.388-7.197,1.494-10.86C38.501,34.896,38.324,34.689,38.084,34.644z"/><g><path fill="#2e2e2e" d="M14.96,33.7l-1.02,0.19l0.12,0.25c1.47,3.03,3.83,7.03,7.01,11.86h1.19 C18.21,39.87,16.08,36.01,14.96,33.7z"/><path fill="#2c2c2c" d="M22.689,46H21.24c-3.304-5.016-5.631-8.996-7.051-11.923l0.261-0.283 c0.154,0.306,1.306,0.637,1.801,1.391C17.269,37.253,19.154,40.651,22.689,46z"/><path fill="#2a2a2a" d="M23.117,46H21.41c-3.429-5.201-5.723-9.161-7.093-11.986l0.643-0.316 c0.309,0.611,1.591,1.464,2.583,2.973C18.457,38.496,20.099,41.433,23.117,46z"/><path fill="#282828" d="M23.546,46H21.58c-3.553-5.387-5.814-9.327-7.134-12.049l1.024-0.349 c0.463,0.917,1.877,2.291,3.364,4.554C19.646,39.739,21.043,42.214,23.546,46z"/><path fill="#272727" d="M23.974,46H21.75c-3.677-5.573-5.906-9.493-7.176-12.111l1.406-0.381 c0.617,1.223,2.163,3.119,4.146,6.136C20.834,40.981,21.987,42.996,23.974,46z"/><path fill="#252525" d="M24.403,46H21.92c-3.801-5.759-5.997-9.659-7.217-12.174l1.787-0.414 c0.771,1.529,2.449,3.946,4.927,7.717C22.023,42.224,22.931,43.777,24.403,46z"/><path fill="#232323" d="M24.831,46H22.09c-3.926-5.944-6.089-9.824-7.259-12.237L17,33.316 c0.926,1.834,2.734,4.773,5.709,9.299C23.211,43.467,23.876,44.559,24.831,46z"/><path fill="#212121" d="M25.26,46h-3c-4.05-6.13-6.18-9.99-7.3-12.3l2.55-0.48c1.08,2.14,3.02,5.6,6.49,10.88 C24.4,44.71,24.82,45.34,25.26,46z"/></g><g><path fill="#2e2e2e" d="M25.74,46h1.19c3.18-4.83,5.54-8.83,7.01-11.86l0.12-0.25l-1.02-0.19 C31.92,36.01,29.79,39.87,25.74,46z"/><path fill="#2c2c2c" d="M25.311,46h1.449c3.304-5.016,5.631-8.996,7.051-11.923l-0.261-0.283 c-0.154,0.306-1.306,0.637-1.801,1.391C30.731,37.253,28.846,40.651,25.311,46z"/><path fill="#2a2a2a" d="M24.883,46h1.707c3.429-5.201,5.723-9.161,7.093-11.986l-0.643-0.316 c-0.309,0.611-1.591,1.464-2.583,2.973C29.543,38.496,27.901,41.433,24.883,46z"/><path fill="#282828" d="M24.454,46h1.966c3.553-5.387,5.814-9.327,7.134-12.049l-1.024-0.349 c-0.463,0.917-1.877,2.291-3.364,4.554C28.354,39.739,26.957,42.214,24.454,46z"/><path fill="#272727" d="M24.026,46h2.224c3.677-5.573,5.906-9.493,7.176-12.111l-1.406-0.381 c-0.617,1.223-2.163,3.119-4.146,6.136C27.166,40.981,26.013,42.996,24.026,46z"/><path fill="#252525" d="M23.597,46h2.483c3.801-5.759,5.997-9.659,7.217-12.174l-1.787-0.414 c-0.771,1.529-2.449,3.946-4.927,7.717C25.977,42.224,25.069,43.777,23.597,46z"/><path fill="#232323" d="M23.169,46h2.741c3.926-5.944,6.089-9.824,7.259-12.237L31,33.316 c-0.926,1.834-2.734,4.773-5.709,9.299C24.789,43.467,24.124,44.559,23.169,46z"/><path fill="#212121" d="M22.74,46h3c4.05-6.13,6.18-9.99,7.3-12.3l-2.55-0.48c-1.08,2.14-3.02,5.6-6.49,10.88 C23.6,44.71,23.18,45.34,22.74,46z"/></g><path fill="#404040" d="M33.03,33.7c-1.11,2.31-3.24,6.17-7.29,12.3h-3.01c0.45-0.67,0.87-1.31,1.27-1.92 c3.46-5.27,5.4-8.72,6.48-10.86h0.01L33.03,33.7z"/><path fill="#404040" d="M25.26,46h-3c-4.05-6.13-6.18-9.99-7.3-12.3l2.55-0.48c1.08,2.14,3.02,5.6,6.49,10.88 C24.4,44.71,24.82,45.34,25.26,46z"/><path fill="#242424" d="M24.44,43.401c-0.149,0.229-0.285,0.442-0.44,0.679c-0.002,0.003-0.004,0.007-0.007,0.01 c0.002,0.004,0.004,0.007,0.007,0.01c0.4,0.61,0.82,1.24,1.26,1.9h0.48L24.44,43.401z"/></g><g><radialGradient id="v2kQoBW9ow5_ighnPSEUHi" cx="67.129" cy="27.287" r="1.844" gradientTransform="matrix(.9227 .1748 -.4139 2.1652 -15.04 -48.376)" gradientUnits="userSpaceOnUse"><stop offset="0" stop-color="#ffe16e"/><stop offset=".461" stop-color="#ffd226"/><stop offset=".741" stop-color="#f8c21d"/><stop offset=".999" stop-color="#f0af13"/></radialGradient><path fill="url(#v2kQoBW9ow5_ighnPSEUHi)" d="M35.01,19.762c0.789-0.24,2.696-0.087,2.762,2.116c0.062,2.083-0.482,3.033-1.206,3.927 c-0.811,1.003-2.27,0.996-2.15,0.199C34.537,25.207,35.01,19.762,35.01,19.762z"/><radialGradient id="v2kQoBW9ow5_ighnPSEUHj" cx="-842.841" cy="27.287" r="1.844" gradientTransform="matrix(-.9179 .1748 .4118 2.1652 -772.945 110.654)" gradientUnits="userSpaceOnUse"><stop offset="0" stop-color="#ffe16e"/><stop offset=".461" stop-color="#ffd226"/><stop offset=".741" stop-color="#f8c21d"/><stop offset=".999" stop-color="#f0af13"/></radialGradient><path fill="url(#v2kQoBW9ow5_ighnPSEUHj)" d="M12.535,19.762c-0.785-0.24-2.682-0.087-2.748,2.116c-0.062,2.083,0.48,3.033,1.199,3.927 c0.807,1.003,2.258,0.996,2.139,0.199C13.005,25.207,12.535,19.762,12.535,19.762z"/><radialGradient id="v2kQoBW9ow5_ighnPSEUHk" cx="113.253" cy="1111.378" r="14.28" fx="113.178" fy="1105.261" gradientTransform="matrix(.8804 0 0 1.0707 -75.808 -1169.996)" gradientUnits="userSpaceOnUse"><stop offset="0" stop-color="#ffe16e"/><stop offset=".629" stop-color="#ffd226"/><stop offset=".75" stop-color="#fdcd23"/><stop offset=".899" stop-color="#f6bd1b"/><stop offset=".999" stop-color="#f0af13"/></radialGradient><path fill="url(#v2kQoBW9ow5_ighnPSEUHk)" d="M36.446,19.894c0,2.859-0.646,5.533-1.771,7.82c-2.191,4.455-6.197,7.564-10.775,7.564 c-4.579,0-8.585-3.109-10.775-7.564c-1.125-2.287-1.771-4.962-1.771-7.82c0-0.628,0.017-1.221,0.05-1.783 c0.192-3.236,0.922-5.466,2.056-7.529c2.25-4.096,6.086-5.946,10.44-5.946c4.331,0,8.149,1.821,10.404,5.88 C35.656,12.951,36.446,15.656,36.446,19.894z"/><g><radialGradient id="v2kQoBW9ow5_ighnPSEUHl" cx="-252.807" cy="1017.462" r="1.709" gradientTransform="matrix(1.37 0 0 1.3195 370.373 -1315.978)" gradientUnits="userSpaceOnUse"><stop offset=".245" stop-color="#cc9000"/><stop offset=".415" stop-color="#d09504" stop-opacity=".822"/><stop offset=".627" stop-color="#dca50f" stop-opacity=".599"/><stop offset=".851" stop-color="#eebd20" stop-opacity=".363"/><stop offset="1" stop-color="#fed12e" stop-opacity="0"/></radialGradient><path fill="url(#v2kQoBW9ow5_ighnPSEUHl)" d="M24.01,27.243c-0.788,0-1.429-0.2-1.825-0.417c-0.291-0.16-0.586-0.086-0.393,0.415 c0.261,0.679,0.858,1.48,2.218,1.48c1.337,0,1.936-0.773,2.204-1.445c0.206-0.516-0.091-0.568-0.344-0.449 C25.382,27.055,24.778,27.243,24.01,27.243z"/><radialGradient id="v2kQoBW9ow5_ighnPSEUHm" cx="-248.306" cy="1389.845" r="1.761" gradientTransform="matrix(1.4827 .036 -.0172 .7101 416.173 -951.584)" gradientUnits="userSpaceOnUse"><stop offset=".479" stop-color="#fed53f"/><stop offset=".926" stop-color="#fed53f" stop-opacity=".141"/><stop offset="1" stop-color="#fed53f" stop-opacity="0"/></radialGradient><path fill="url(#v2kQoBW9ow5_ighnPSEUHm)" d="M26.874,26.473c-0.018,0.757-1.286,1.339-2.831,1.302 c-1.545-0.038-2.782-0.681-2.764-1.438s1.286-1.339,2.831-1.302C25.655,25.073,26.892,25.717,26.874,26.473z"/><radialGradient id="v2kQoBW9ow5_ighnPSEUHn" cx="24.117" cy="1667.447" r="1.411" gradientTransform="matrix(1 0 0 .6596 0 -1073.49)" gradientUnits="userSpaceOnUse"><stop offset=".004" stop-color="#fff4c9"/><stop offset="1" stop-color="#fff4c9" stop-opacity="0"/></radialGradient><ellipse cx="24.117" cy="26.357" fill="url(#v2kQoBW9ow5_ighnPSEUHn)" rx="1.411" ry=".931"/></g><g><path fill="#805b2a" d="M14.322,22.228c-0.023,0.367,0.055,0.336,0.196,0.519c0,0,1.594,2.204,6.402,0.695 c0.348-0.124,0.598-0.36,0.562-0.644C20.866,17.916,14.699,18.633,14.322,22.228z"/><path fill="#fff" d="M14.393,22.008c-0.12,0.258-0.082,0.464,0,0.672c0.343,0.906,3.095,4.131,6.809,0.745 c0.277-0.239,0.321-0.45,0.252-0.748c-0.069-0.299-1.031-2.739-3.552-2.739C15.405,19.938,14.601,21.657,14.393,22.008z"/><linearGradient id="v2kQoBW9ow5_ighnPSEUHo" x1="15.901" x2="20.085" y1="1174.007" y2="1174.007" gradientTransform="translate(0 -1152)" gradientUnits="userSpaceOnUse"><stop offset="0" stop-color="#c69c6d"/><stop offset="1" stop-color="#754c24"/></linearGradient><circle cx="17.993" cy="22.007" r="2.092" fill="url(#v2kQoBW9ow5_ighnPSEUHo)"/><radialGradient id="v2kQoBW9ow5_ighnPSEUHp" cx="17.993" cy="1174.007" r="1.053" gradientTransform="translate(0 -1152)" gradientUnits="userSpaceOnUse"><stop offset="0" stop-color="#1c1911"/><stop offset=".999" stop-color="#171714"/></radialGradient><circle cx="17.993" cy="22.007" r="1.053" fill="url(#v2kQoBW9ow5_ighnPSEUHp)"/><circle cx="17.484" cy="21.464" r=".494" fill="#fff"/></g><g><path fill="#805b2a" d="M33.574,22.228c0.023,0.367-0.055,0.336-0.196,0.519c0,0-1.594,2.204-6.402,0.695 c-0.348-0.124-0.598-0.36-0.562-0.644C27.03,17.916,33.197,18.633,33.574,22.228z"/><path fill="#fff" d="M33.503,22.008c0.12,0.258,0.082,0.464,0,0.672c-0.343,0.906-3.095,4.131-6.809,0.745 c-0.277-0.239-0.321-0.45-0.252-0.748c0.069-0.299,1.031-2.739,3.552-2.739C32.49,19.938,33.295,21.657,33.503,22.008z"/><linearGradient id="v2kQoBW9ow5_ighnPSEUHq" x1="73.432" x2="77.616" y1="-187.87" y2="-187.87" gradientTransform="matrix(1 0 0 -1 -45.622 -165.863)" gradientUnits="userSpaceOnUse"><stop offset="0" stop-color="#c69c6d"/><stop offset="1" stop-color="#754c24"/></linearGradient><circle cx="29.902" cy="22.007" r="2.092" fill="url(#v2kQoBW9ow5_ighnPSEUHq)"/><radialGradient id="v2kQoBW9ow5_ighnPSEUHr" cx="-1870.476" cy="1174.007" r="1.053" gradientTransform="matrix(-1 0 0 1 -1840.574 -1152)" gradientUnits="userSpaceOnUse"><stop offset="0" stop-color="#1c1911"/><stop offset=".999" stop-color="#171714"/></radialGradient><circle cx="29.902" cy="22.007" r="1.053" fill="url(#v2kQoBW9ow5_ighnPSEUHr)"/><circle cx="29.422" cy="21.464" r=".494" fill="#fff"/></g><g><path fill="#805b2a" d="M32.167,18.379c-1.366-0.349-2.812-0.246-4.06,0.234c-0.388,0.149-0.824-0.044-0.974-0.433 c-0.149-0.388,0.044-0.824,0.433-0.974c0.04-0.015,0.081-0.027,0.122-0.035l0.017-0.003c1.614-0.316,3.275-0.127,4.712,0.517 c0.187,0.083,0.27,0.302,0.187,0.489c-0.075,0.167-0.258,0.251-0.429,0.207L32.167,18.379z"/><path fill="#805b2a" d="M15.833,17.684c1.437-0.643,3.098-0.833,4.712-0.517l0.013,0.003 c0.408,0.08,0.675,0.476,0.595,0.884s-0.476,0.675-0.884,0.595c-0.042-0.008-0.087-0.021-0.126-0.036 c-1.248-0.48-2.693-0.583-4.06-0.234l-0.007,0.002c-0.198,0.051-0.4-0.069-0.45-0.267C15.581,17.936,15.672,17.756,15.833,17.684z"/></g><g><radialGradient id="v2kQoBW9ow5_ighnPSEUHs" cx="-132.549" cy="1163.455" r="2.561" gradientTransform="matrix(1.1109 0 0 1.3094 171.275 -1493.29)" gradientUnits="userSpaceOnUse"><stop offset=".696" stop-color="#cc9000"/><stop offset="1" stop-color="#cc9000" stop-opacity="0"/></radialGradient><path fill="url(#v2kQoBW9ow5_ighnPSEUHs)" d="M24,32.091c-2.85,0-2.946-1.638-2.946-1.638s0.07,3.276,2.946,3.276 s2.946-3.276,2.946-3.276S26.85,32.091,24,32.091z"/><radialGradient id="v2kQoBW9ow5_ighnPSEUHt" cx="257.45" cy="2091.902" r="3.248" fx="257.448" fy="2092.024" gradientTransform="matrix(.7953 0 0 .5951 -180.75 -1213.844)" gradientUnits="userSpaceOnUse"><stop offset=".371" stop-color="#ffd226"/><stop offset=".948" stop-color="#ffe16e"/><stop offset="1" stop-color="#ffe16e" stop-opacity="0"/></radialGradient><path fill="url(#v2kQoBW9ow5_ighnPSEUHt)" d="M27.094,30.961c0,0,0.039,1.526-3.094,1.526s-3.094-1.526-3.094-1.526 S21.593,31.73,24,31.73S27.094,30.961,27.094,30.961z"/><radialGradient id="v2kQoBW9ow5_ighnPSEUHu" cx="177.975" cy="2589.44" r="3.162" gradientTransform="matrix(.8379 0 0 .4972 -125.084 -1256.56)" gradientUnits="userSpaceOnUse"><stop offset="0" stop-color="#1c1911"/><stop offset=".999" stop-color="#171714"/></radialGradient><path fill="url(#v2kQoBW9ow5_ighnPSEUHu)" d="M21.12,30.938c-0.169,0-0.267,0.104-0.184,0.188c0.618,0.624,2.032,0.812,3.064,0.812 c1.121,0,2.446-0.188,3.064-0.812c0.083-0.084-0.015-0.188-0.184-0.188C24.975,31.011,23.055,31.016,21.12,30.938z"/></g></g><g><radialGradient id="v2kQoBW9ow5_ighnPSEUHv" cx="24" cy="18.75" r="26.011" gradientUnits="userSpaceOnUse"><stop offset="0" stop-color="#616161"/><stop offset=".05" stop-color="#5d5d5d"/><stop offset="1" stop-color="#1a1a1a"/></radialGradient><path fill="url(#v2kQoBW9ow5_ighnPSEUHv)" d="M37.5,18c0-1.5,0.5-2.822,0.5-4c0-9-6.268-13-14-13S10,5,10,14c0,1.178,0.5,2.5,0.5,4 c0,1-1,2-1,4c0,5.5,6.6,14.5,14.5,14.5s14.5-9,14.5-14.5C38.5,20,37.5,19,37.5,18z M35,23.5c0,1.933-1.567,3.5-3.5,3.5 C28,27,26,24,24,24s-4,3-7.5,3c-1.933,0-3.5-1.567-3.5-3.5v-3.868c0-1.309,0.713-2.536,1.89-3.109C16.444,15.765,19.201,15,24,15 s7.556,0.765,9.11,1.523c1.177,0.574,1.89,1.8,1.89,3.109V23.5z"/><path fill="#3b3b3b" d="M14.215,26.151C13.477,25.509,13,24.555,13,23.5c0,2.115,0.433,3.935,1.083,5.476 c0.65,1.542,1.518,2.804,2.388,3.804s1.742,1.736,2.401,2.225c0.659,0.489,1.104,0.73,1.121,0.739 c-0.26-0.172-1.456-1.011-2.712-2.586c-0.628-0.788-1.27-1.76-1.818-2.925C14.916,29.068,14.463,27.71,14.215,26.151z"/><path fill="#363636" d="M13,23.5c0,1.813,0.228,4.155,0.786,5.476c0.692,1.526,1.607,2.803,2.544,3.831 c0.593,0.651,1.19,1.197,1.74,1.639c0.269,0.217,0.526,0.407,0.761,0.573c0.634,0.449,1.081,0.691,1.165,0.725 c-0.085-0.056-0.34-0.224-0.698-0.508c-0.555-0.442-1.355-1.162-2.169-2.178c-0.624-0.78-1.26-1.737-1.802-2.877 c-0.371-0.779-0.697-1.645-0.947-2.599c-0.119-0.454-0.221-0.928-0.301-1.422C13.421,25.489,13,24.542,13,23.5z"/><path fill="#323232" d="M13,23.5c0,1.51,0.023,4.374,0.488,5.475c0.734,1.511,1.696,2.803,2.699,3.858 c0.608,0.639,1.225,1.184,1.809,1.632c0.276,0.212,0.544,0.399,0.792,0.568c0.608,0.411,1.057,0.652,1.208,0.711 c-0.071-0.047-0.345-0.22-0.739-0.525c-0.586-0.457-1.431-1.205-2.283-2.262c-0.621-0.773-1.249-1.713-1.786-2.83 c-0.37-0.769-0.696-1.621-0.946-2.559c-0.119-0.447-0.221-0.914-0.303-1.4C13.366,25.468,13,24.529,13,23.5z"/><path fill="#2d2d2d" d="M13,23.5c0,1.208-0.181,4.594,0.19,5.475c0.777,1.496,1.783,2.804,2.855,3.885 c0.623,0.628,1.26,1.172,1.878,1.625c0.283,0.208,0.561,0.393,0.823,0.562c0.58,0.375,1.033,0.613,1.251,0.697 c-0.057-0.037-0.351-0.216-0.78-0.542c-0.616-0.472-1.508-1.247-2.398-2.345c-0.618-0.765-1.239-1.69-1.769-2.783 c-0.369-0.759-0.694-1.598-0.944-2.519c-0.12-0.441-0.222-0.9-0.304-1.379C13.311,25.448,13,24.516,13,23.5z"/><path fill="#282828" d="M13,23.5c0,0.906-0.386,4.813-0.107,5.474c0.819,1.481,1.869,2.805,3.01,3.912 c0.637,0.618,1.295,1.16,1.946,1.618c0.29,0.204,0.577,0.386,0.854,0.557c0.552,0.34,1.01,0.574,1.294,0.683 c-0.042-0.028-0.356-0.212-0.821-0.559c-0.647-0.487-1.585-1.289-2.512-2.429c-0.614-0.757-1.228-1.667-1.753-2.736 c-0.368-0.748-0.692-1.574-0.942-2.48c-0.12-0.434-0.223-0.886-0.306-1.357C13.256,25.427,13,24.503,13,23.5z"/><path fill="#232323" d="M13,23.5c0,0.604-0.591,5.033-0.405,5.474c0.861,1.466,1.954,2.808,3.165,3.939 c0.65,0.608,1.329,1.149,2.015,1.611c0.297,0.2,0.594,0.381,0.885,0.551c0.523,0.306,0.986,0.535,1.338,0.669 c-0.028-0.019-0.361-0.208-0.863-0.576c-0.678-0.501-1.661-1.331-2.626-2.512c-0.611-0.75-1.218-1.644-1.737-2.688 c-0.367-0.738-0.69-1.551-0.941-2.44c-0.12-0.427-0.224-0.872-0.307-1.335C13.2,25.407,13,24.49,13,23.5z"/><path fill="#1f1f1f" d="M13,23.5c0,0.302-0.795,5.253-0.702,5.473c0.903,1.45,2.039,2.811,3.321,3.966 c0.664,0.598,1.362,1.139,2.084,1.603c0.303,0.196,0.61,0.376,0.916,0.546c0.494,0.273,0.962,0.496,1.381,0.656 c-0.014-0.009-0.367-0.204-0.904-0.593c-0.709-0.516-1.738-1.373-2.74-2.596c-0.608-0.742-1.207-1.621-1.721-2.641 c-0.366-0.728-0.689-1.527-0.939-2.4c-0.121-0.421-0.225-0.859-0.309-1.314C13.145,25.386,13,24.476,13,23.5z"/><path fill="#1a1a1a" d="M13,23.5l-1,5.472c0.945,1.435,2.123,2.816,3.476,3.993c0.677,0.589,1.397,1.127,2.153,1.596 c0.756,0.469,1.549,0.869,2.371,1.182c0,0-0.372-0.199-0.945-0.61c-0.74-0.531-1.815-1.415-2.854-2.679 c-1.039-1.264-2.043-2.906-2.642-4.954C13.211,26.307,13,24.975,13,23.5z"/><g><path fill="#3b3b3b" d="M33.785,26.151C34.523,25.509,35,24.555,35,23.5c0,2.115-0.433,3.935-1.083,5.476 c-0.65,1.542-1.518,2.804-2.388,3.804s-1.742,1.736-2.401,2.225c-0.659,0.489-1.104,0.73-1.121,0.739 c0.26-0.172,1.456-1.011,2.712-2.586c0.628-0.788,1.27-1.76,1.818-2.925C33.084,29.068,33.537,27.71,33.785,26.151z"/><path fill="#363636" d="M35,23.5c0,1.813-0.228,4.155-0.786,5.476c-0.692,1.526-1.607,2.803-2.544,3.831 c-0.593,0.651-1.19,1.197-1.74,1.639c-0.269,0.217-0.526,0.407-0.761,0.573c-0.634,0.449-1.081,0.691-1.165,0.725 c0.1-0.066,0.417-0.277,0.856-0.64c0.515-0.427,1.196-1.063,1.897-1.919c0.236-0.288,0.474-0.6,0.709-0.938 c0.403-0.58,0.796-1.234,1.152-1.965c0.445-0.915,0.831-1.95,1.101-3.11c0.073-0.313,0.138-0.634,0.193-0.965 C34.575,25.523,35,24.56,35,23.5z"/><path fill="#323232" d="M35,23.5c0,1.51-0.023,4.374-0.488,5.475c-0.734,1.511-1.696,2.803-2.699,3.858 c-0.608,0.639-1.225,1.184-1.809,1.632c-0.276,0.212-0.544,0.399-0.792,0.568c-0.608,0.411-1.057,0.652-1.208,0.711 c0.084-0.055,0.41-0.263,0.871-0.635c0.522-0.421,1.211-1.05,1.924-1.897c0.24-0.285,0.483-0.595,0.723-0.931 c0.412-0.576,0.814-1.225,1.179-1.952c0.459-0.912,0.857-1.945,1.139-3.104c0.076-0.313,0.144-0.634,0.201-0.965 C34.627,25.536,35,24.565,35,23.5z"/><path fill="#2d2d2d" d="M35,23.5c0,1.208,0.181,4.594-0.19,5.475c-0.777,1.496-1.783,2.804-2.855,3.885 c-0.623,0.628-1.26,1.172-1.878,1.625c-0.283,0.208-0.561,0.393-0.823,0.562c-0.58,0.375-1.033,0.613-1.251,0.697 c0.067-0.044,0.403-0.25,0.886-0.63c0.528-0.415,1.227-1.038,1.951-1.874c0.245-0.283,0.493-0.591,0.738-0.923 c0.421-0.571,0.832-1.216,1.206-1.938c0.472-0.91,0.884-1.941,1.176-3.097c0.079-0.312,0.149-0.634,0.21-0.965 C34.678,25.549,35,24.57,35,23.5z"/><path fill="#282828" d="M35,23.5c0,0.906,0.386,4.813,0.107,5.474c-0.819,1.481-1.869,2.805-3.01,3.912 c-0.637,0.618-1.295,1.16-1.946,1.618c-0.29,0.204-0.577,0.386-0.854,0.557c-0.552,0.34-1.01,0.574-1.294,0.683 c0.05-0.033,0.395-0.237,0.901-0.625c0.534-0.41,1.242-1.025,1.977-1.852c0.25-0.281,0.503-0.586,0.753-0.916 c0.429-0.567,0.85-1.208,1.233-1.924c0.486-0.907,0.91-1.936,1.214-3.091c0.082-0.312,0.155-0.634,0.218-0.965 C34.73,25.562,35,24.575,35,23.5z"/><path fill="#232323" d="M35,23.5c0,0.604,0.591,5.033,0.405,5.474c-0.861,1.466-1.954,2.808-3.165,3.939 c-0.65,0.608-1.329,1.149-2.015,1.611c-0.297,0.2-0.594,0.381-0.885,0.551c-0.523,0.306-0.986,0.535-1.338,0.669 c0.033-0.022,0.387-0.225,0.915-0.62c0.539-0.406,1.257-1.012,2.004-1.83c0.254-0.278,0.512-0.581,0.767-0.909 c0.438-0.563,0.868-1.199,1.261-1.91c0.499-0.904,0.937-1.931,1.251-3.084c0.085-0.312,0.161-0.634,0.227-0.965 C34.782,25.575,35,24.58,35,23.5z"/><path fill="#1f1f1f" d="M35,23.5c0,0.302,0.795,5.253,0.702,5.473c-0.903,1.45-2.039,2.811-3.321,3.966 c-0.664,0.598-1.362,1.139-2.084,1.603c-0.303,0.196-0.61,0.376-0.916,0.546c-0.494,0.273-0.962,0.496-1.381,0.656 c0.017-0.011,0.38-0.212,0.93-0.615c0.545-0.401,1.273-1,2.031-1.807c0.259-0.276,0.522-0.576,0.782-0.901 c0.447-0.558,0.886-1.19,1.288-1.897c0.513-0.902,0.964-1.926,1.289-3.078c0.088-0.312,0.167-0.633,0.235-0.964 C34.833,25.588,35,24.585,35,23.5z"/><path fill="#1a1a1a" d="M35,23.5l1,5.472c-0.945,1.435-2.123,2.816-3.476,3.993c-0.677,0.589-1.397,1.127-2.153,1.596 c-0.756,0.469-1.549,0.869-2.371,1.182c0,0,0.372-0.199,0.945-0.61c0.74-0.531,1.815-1.415,2.854-2.679 c1.039-1.264,2.043-2.906,2.642-4.954C34.789,26.307,35,24.975,35,23.5z"/></g><radialGradient id="v2kQoBW9ow5_ighnPSEUHw" cx="24" cy="18.372" r="18.878" gradientUnits="userSpaceOnUse"><stop offset="0" stop-color="#4d4d4d"/><stop offset="1" stop-color="#242424"/></radialGradient><path fill="url(#v2kQoBW9ow5_ighnPSEUHw)" d="M37.5,18c0-1.5,0.5-2.822,0.5-4c0-9-6.268-13-14-13S10,5,10,14c0,1.178,0.5,2.5,0.5,4 c0,1-1,2-1,4c0,4.536,4.494,11.459,10.5,13.744c0,0-7-3.744-7-12.244v-3.868c0-1.309,0.713-2.536,1.89-3.109 C16.444,15.765,19.201,15,24,15s7.556,0.765,9.11,1.523c1.177,0.574,1.89,1.8,1.89,3.109V23.5c0,8.5-6.994,12.244-6.994,12.244 C34.012,33.459,38.5,26.536,38.5,22C38.5,20,37.5,19,37.5,18z"/><g><path fill="#1a1a1a" d="M34.914,18.889c-0.036-0.168-0.083-0.332-0.142-0.492c-0.009-0.025-0.016-0.05-0.026-0.075 c-0.155-0.393-0.38-0.751-0.664-1.061c-0.003-0.003-0.005-0.007-0.008-0.011c-0.012-0.013,0.001-1.357-0.249-3.182 c-0.125-0.912-0.316-1.945-0.608-2.992C32.925,10.03,32.531,8.969,32,8c0.375,0.5,0.703,1.004,0.99,1.51 c0.287,0.506,0.533,1.014,0.744,1.521c0.422,1.015,0.703,2.028,0.891,3.022C35,16.04,35,17.948,35,19.632 c0-0.203-0.023-0.403-0.056-0.6C34.935,18.984,34.924,18.937,34.914,18.889z"/><path fill="#1d1d1d" d="M34.617,18.037c-0.136-0.363-0.326-0.722-0.567-1.055c-0.012-0.063-0.016-0.696-0.097-1.644 c-0.037-0.424-0.09-0.906-0.163-1.427c-0.103-0.727-0.249-1.527-0.454-2.349c-0.045-0.179-0.092-0.36-0.143-0.54 c-0.138-0.492-0.299-0.987-0.486-1.475c-0.197-0.513-0.423-1.017-0.682-1.498c0.084,0.105,0.166,0.209,0.241,0.317 c0.24,0.343,0.448,0.698,0.643,1.05c0.271,0.489,0.505,0.983,0.707,1.477c0.399,0.974,0.671,1.953,0.857,2.918 c0.178,0.922,0.278,1.831,0.334,2.713c0.046,0.741,0.058,1.453,0.063,2.145C34.807,18.45,34.718,18.24,34.617,18.037z"/><path fill="#202020" d="M34.522,17.853c-0.116-0.367-0.28-0.754-0.498-1.137c-0.016-0.117-0.025-0.717-0.106-1.586 c-0.038-0.412-0.093-0.876-0.166-1.374c-0.104-0.705-0.248-1.476-0.447-2.266c-0.044-0.173-0.09-0.346-0.139-0.52 c-0.134-0.475-0.289-0.952-0.468-1.422c-0.188-0.494-0.404-0.981-0.65-1.447c0.061,0.068,0.121,0.134,0.172,0.206 c0.234,0.325,0.421,0.675,0.605,1.018c0.255,0.473,0.476,0.951,0.669,1.433c0.375,0.934,0.639,1.878,0.824,2.814 c0.178,0.9,0.284,1.794,0.347,2.666c0.05,0.709,0.067,1.396,0.075,2.066C34.677,18.147,34.606,17.997,34.522,17.853z"/><path fill="#232323" d="M34.365,17.614c-0.111-0.343-0.248-0.733-0.366-1.165c-0.045-0.167-0.036-0.739-0.115-1.528 c-0.04-0.4-0.096-0.846-0.169-1.321c-0.105-0.682-0.247-1.425-0.441-2.184c-0.042-0.166-0.087-0.332-0.134-0.499 c-0.13-0.457-0.279-0.917-0.45-1.37c-0.18-0.476-0.385-0.945-0.619-1.396c0.038,0.031,0.076,0.059,0.104,0.094 c0.239,0.299,0.393,0.652,0.566,0.985c0.238,0.456,0.448,0.92,0.631,1.389c0.352,0.894,0.607,1.803,0.791,2.71 c0.178,0.879,0.291,1.757,0.36,2.62c0.056,0.71,0.077,1.402,0.088,2.08C34.539,17.884,34.457,17.746,34.365,17.614z"/><path fill="#272727" d="M34.305,17.528c-0.091-0.362-0.216-0.813-0.331-1.346c-0.048-0.222-0.047-0.76-0.123-1.469 c-0.042-0.388-0.099-0.816-0.171-1.269c-0.106-0.66-0.247-1.374-0.434-2.102c-0.041-0.159-0.084-0.319-0.13-0.479 c-0.125-0.44-0.269-0.881-0.432-1.318c-0.172-0.458-0.367-0.909-0.587-1.345c0.015-0.006,0.026-0.012,0.036-0.017 c0.19,0.312,0.365,0.629,0.528,0.953c0.222,0.44,0.419,0.889,0.594,1.345c0.329,0.853,0.575,1.727,0.758,2.606 c0.178,0.857,0.297,1.72,0.373,2.573c0.063,0.722,0.089,1.431,0.101,2.127C34.431,17.697,34.368,17.613,34.305,17.528z"/><path fill="#2a2a2a" d="M34.222,17.41c-0.063-0.349-0.165-0.859-0.272-1.496c-0.047-0.277-0.059-0.782-0.132-1.411 c-0.044-0.377-0.102-0.785-0.174-1.216c-0.107-0.638-0.246-1.322-0.428-2.019c-0.04-0.152-0.082-0.305-0.126-0.458 c-0.121-0.422-0.259-0.846-0.415-1.265c-0.164-0.44-0.348-0.874-0.555-1.294c-0.008-0.043-0.019-0.086-0.032-0.128 c0.174,0.3,0.337,0.607,0.489,0.92c0.206,0.423,0.391,0.858,0.556,1.301c0.306,0.813,0.543,1.652,0.724,2.502 c0.179,0.836,0.304,1.683,0.386,2.526c0.073,0.755,0.105,1.503,0.118,2.238C34.315,17.543,34.273,17.473,34.222,17.41z"/><path fill="#2d2d2d" d="M34.124,17.305c-0.031-0.291-0.1-0.881-0.199-1.657c-0.042-0.332-0.071-0.803-0.141-1.353 c-0.046-0.365-0.105-0.755-0.176-1.163c-0.108-0.616-0.245-1.271-0.422-1.937c-0.039-0.146-0.079-0.292-0.121-0.438 c-0.117-0.404-0.249-0.811-0.397-1.213c-0.155-0.421-0.329-0.838-0.523-1.243c-0.032-0.08-0.065-0.16-0.1-0.239 c0.159,0.288,0.31,0.584,0.451,0.888c0.189,0.407,0.362,0.826,0.519,1.257c0.282,0.773,0.511,1.577,0.691,2.398 c0.179,0.814,0.31,1.645,0.399,2.479c0.083,0.787,0.124,1.575,0.136,2.351C34.203,17.389,34.162,17.348,34.124,17.305z"/><path fill="#303030" d="M34,17.172c0,0,0-1.293-0.25-3.086c-0.125-0.897-0.313-1.918-0.594-2.965 c-0.141-0.524-0.305-1.054-0.496-1.578S32.25,8.5,32,8c0.336,0.642,0.635,1.336,0.894,2.068s0.479,1.502,0.658,2.295 s0.317,1.608,0.412,2.432c0.095,0.824,0.148,1.655,0.156,2.48l0,0.026C34.081,17.257,34.041,17.214,34,17.172z"/></g><g><path fill="#1a1a1a" d="M13.086,18.889c0.036-0.168,0.083-0.332,0.142-0.492c0.009-0.025,0.016-0.05,0.026-0.075 c0.155-0.393,0.38-0.751,0.664-1.061c0.003-0.003,0.005-0.007,0.008-0.011c0.012-0.013-0.001-1.357,0.249-3.182 c0.125-0.912,0.316-1.945,0.608-2.992C15.075,10.03,15.469,8.969,16,8c-0.375,0.5-0.703,1.004-0.99,1.51 c-0.287,0.506-0.533,1.014-0.744,1.521c-0.422,1.015-0.703,2.028-0.891,3.022C13,16.04,13,17.948,13,19.632 c0-0.203,0.023-0.403,0.056-0.6C13.065,18.984,13.076,18.937,13.086,18.889z"/><path fill="#1d1d1d" d="M13.383,18.037c0.136-0.363,0.326-0.722,0.567-1.055c0.012-0.063,0.016-0.696,0.097-1.644 c0.037-0.424,0.09-0.906,0.163-1.427c0.103-0.727,0.249-1.527,0.454-2.349c0.045-0.179,0.092-0.36,0.143-0.54 c0.138-0.492,0.299-0.987,0.486-1.475c0.197-0.513,0.423-1.017,0.682-1.498c-0.084,0.105-0.166,0.209-0.241,0.317 c-0.24,0.343-0.448,0.698-0.643,1.05c-0.271,0.489-0.505,0.983-0.707,1.477c-0.399,0.974-0.671,1.953-0.857,2.918 c-0.178,0.922-0.278,1.831-0.334,2.713c-0.046,0.741-0.058,1.453-0.063,2.145C13.193,18.45,13.282,18.24,13.383,18.037z"/><path fill="#202020" d="M13.478,17.853c0.116-0.367,0.28-0.754,0.498-1.137c0.016-0.117,0.025-0.717,0.106-1.586 c0.038-0.412,0.093-0.876,0.166-1.374c0.104-0.705,0.248-1.476,0.447-2.266c0.044-0.173,0.09-0.346,0.139-0.52 c0.134-0.475,0.289-0.952,0.468-1.422c0.188-0.494,0.404-0.981,0.65-1.447c-0.061,0.068-0.121,0.134-0.172,0.206 c-0.234,0.325-0.421,0.675-0.605,1.018c-0.255,0.473-0.476,0.951-0.669,1.433c-0.375,0.934-0.639,1.878-0.824,2.814 c-0.178,0.9-0.284,1.794-0.347,2.666c-0.05,0.709-0.067,1.396-0.075,2.066C13.323,18.147,13.394,17.997,13.478,17.853z"/><path fill="#232323" d="M13.635,17.614c0.111-0.343,0.248-0.733,0.366-1.165c0.045-0.167,0.036-0.739,0.115-1.528 c0.04-0.4,0.096-0.846,0.169-1.321c0.105-0.682,0.247-1.425,0.441-2.184c0.042-0.166,0.087-0.332,0.134-0.499 c0.13-0.457,0.279-0.917,0.45-1.37c0.18-0.476,0.385-0.945,0.619-1.396c-0.038,0.031-0.076,0.059-0.104,0.094 c-0.239,0.299-0.393,0.652-0.566,0.985c-0.238,0.456-0.448,0.92-0.631,1.389c-0.352,0.894-0.607,1.803-0.791,2.71 c-0.178,0.879-0.291,1.757-0.36,2.62c-0.056,0.71-0.077,1.402-0.088,2.08C13.461,17.884,13.543,17.746,13.635,17.614z"/><path fill="#272727" d="M13.695,17.528c0.091-0.362,0.216-0.813,0.331-1.346c0.048-0.222,0.047-0.76,0.123-1.469 c0.042-0.388,0.099-0.816,0.171-1.269c0.106-0.66,0.247-1.374,0.434-2.102c0.041-0.159,0.084-0.319,0.13-0.479 c0.125-0.44,0.269-0.881,0.432-1.318c0.172-0.458,0.367-0.909,0.587-1.345c-0.015-0.006-0.026-0.012-0.036-0.017 c-0.19,0.312-0.365,0.629-0.528,0.953c-0.222,0.44-0.419,0.889-0.594,1.345c-0.329,0.853-0.575,1.727-0.758,2.606 c-0.178,0.857-0.297,1.72-0.373,2.573c-0.063,0.722-0.089,1.431-0.101,2.127C13.569,17.697,13.632,17.613,13.695,17.528z"/><path fill="#2a2a2a" d="M13.778,17.41c0.063-0.349,0.165-0.859,0.272-1.496c0.047-0.277,0.059-0.782,0.132-1.411 c0.044-0.377,0.102-0.785,0.174-1.216c0.107-0.638,0.246-1.322,0.428-2.019c0.04-0.152,0.082-0.305,0.126-0.458 c0.121-0.422,0.259-0.846,0.415-1.265c0.164-0.44,0.348-0.874,0.555-1.294c0.008-0.043,0.019-0.086,0.032-0.128 c-0.174,0.3-0.337,0.607-0.489,0.92c-0.206,0.423-0.391,0.858-0.556,1.301c-0.306,0.813-0.543,1.652-0.724,2.502 c-0.179,0.836-0.304,1.683-0.386,2.526c-0.073,0.755-0.105,1.503-0.118,2.238C13.685,17.543,13.727,17.473,13.778,17.41z"/><path fill="#2d2d2d" d="M13.876,17.305c0.031-0.291,0.1-0.881,0.199-1.657c0.042-0.332,0.071-0.803,0.141-1.353 c0.046-0.365,0.105-0.755,0.176-1.163c0.108-0.616,0.245-1.271,0.422-1.937c0.039-0.146,0.079-0.292,0.121-0.438 c0.117-0.404,0.249-0.811,0.397-1.213c0.155-0.421,0.329-0.838,0.523-1.243c0.032-0.08,0.065-0.16,0.1-0.239 c-0.159,0.288-0.31,0.584-0.451,0.888c-0.189,0.407-0.362,0.826-0.519,1.257c-0.282,0.773-0.511,1.577-0.691,2.398 c-0.179,0.814-0.31,1.645-0.399,2.479c-0.083,0.787-0.124,1.575-0.136,2.351C13.797,17.389,13.838,17.348,13.876,17.305z"/><path fill="#303030" d="M14,17.172c0,0,0-1.293,0.25-3.086c0.125-0.897,0.313-1.918,0.594-2.965 c0.141-0.524,0.305-1.054,0.496-1.578C15.531,9.018,15.75,8.5,16,8c-0.336,0.642-0.635,1.336-0.894,2.068 s-0.479,1.502-0.658,2.295s-0.317,1.608-0.412,2.432s-0.148,1.655-0.156,2.48l0,0.026C13.919,17.257,13.959,17.214,14,17.172z"/></g></g></svg>